<svg width="200" height="63" viewBox="0 0 200 63" fill="none" xmlns="http://www.w3.org/2000/svg">
<path d="M105.41 15.6826C105.41 17.9319 103.598 19.7438 101.349 19.7438C99.0992 19.7438 97.2873 17.9319 97.2873 15.6826C97.2873 13.4333 99.0368 11.6214 101.349 11.6214C103.66 11.6838 105.41 13.4958 105.41 15.6826ZM88.665 23.8675C88.665 24.2424 88.665 24.8672 88.665 24.8672C88.665 24.8672 86.7281 22.368 82.6044 22.368C75.794 22.368 70.4832 27.5539 70.4832 34.7391C70.4832 41.8619 75.7315 47.1103 82.6044 47.1103C86.7906 47.1103 88.665 44.5486 88.665 44.5486V45.6107C88.665 46.1106 89.0399 46.4855 89.5397 46.4855H94.6006V22.9928C94.6006 22.9928 89.9771 22.9928 89.5397 22.9928C89.0399 22.9928 88.665 23.4302 88.665 23.8675ZM88.665 38.9253C87.7278 40.2999 85.8534 41.487 83.6041 41.487C79.6053 41.487 76.5438 38.9878 76.5438 34.7391C76.5438 30.4905 79.6053 27.9913 83.6041 27.9913C85.7909 27.9913 87.7903 29.2409 88.665 30.553V38.9253ZM98.3495 22.9928H104.348V46.4855H98.3495V22.9928ZM187.946 22.368C183.823 22.368 181.886 24.8672 181.886 24.8672V11.6838H175.888V46.4855C175.888 46.4855 180.511 46.4855 180.949 46.4855C181.449 46.4855 181.823 46.0481 181.823 45.6107V44.5486C181.823 44.5486 183.76 47.1103 187.884 47.1103C194.694 47.1103 200.005 41.8619 200.005 34.7391C200.005 27.6164 194.694 22.368 187.946 22.368ZM186.947 41.4246C184.635 41.4246 182.823 40.2374 181.886 38.8629V30.4905C182.823 29.2409 184.822 27.9288 186.947 27.9288C190.946 27.9288 194.007 30.428 194.007 34.6767C194.007 38.9253 190.946 41.4246 186.947 41.4246ZM172.764 32.5523V46.548H166.766V33.2396C166.766 29.3658 165.516 27.8038 162.142 27.8038C160.33 27.8038 158.456 28.741 157.269 30.1156V46.4855H151.27V22.9928H156.019C156.519 22.9928 156.894 23.4302 156.894 23.8675V24.8672C158.643 23.0553 160.955 22.368 163.267 22.368C165.891 22.368 168.078 23.1178 169.827 24.6173C171.951 26.3668 172.764 28.6161 172.764 32.5523ZM136.712 22.368C132.589 22.368 130.652 24.8672 130.652 24.8672V11.6838H124.654V46.4855C124.654 46.4855 129.277 46.4855 129.715 46.4855C130.215 46.4855 130.589 46.0481 130.589 45.6107V44.5486C130.589 44.5486 132.526 47.1103 136.65 47.1103C143.46 47.1103 148.771 41.8619 148.771 34.7391C148.834 27.6164 143.523 22.368 136.712 22.368ZM135.713 41.4246C133.401 41.4246 131.589 40.2374 130.652 38.8629V30.4905C131.589 29.2409 133.588 27.9288 135.713 27.9288C139.712 27.9288 142.773 30.428 142.773 34.6767C142.773 38.9253 139.712 41.4246 135.713 41.4246ZM119.468 22.368C121.28 22.368 122.217 22.6804 122.217 22.6804V28.2412C122.217 28.2412 117.219 26.5542 114.095 30.1156V46.548H108.096V22.9928C108.096 22.9928 112.72 22.9928 113.157 22.9928C113.657 22.9928 114.032 23.4302 114.032 23.8675V24.8672C115.157 23.5551 117.593 22.368 119.468 22.368ZM57.1748 44.3611C56.8624 43.6114 56.55 42.7991 56.2376 42.1118C55.7378 40.9872 55.2379 39.925 54.8006 38.9253L54.7381 38.8629C50.4269 29.4908 45.8034 19.9938 40.9299 10.6217L40.7425 10.2468C40.2426 9.30959 39.7428 8.3099 39.2429 7.31022C38.6181 6.18557 37.9933 4.99844 36.9936 3.87379C34.9943 1.37457 32.1202 0 29.0586 0C25.9346 0 23.123 1.37457 21.0611 3.74883C20.1239 4.87348 19.4366 6.06061 18.8118 7.18525C18.312 8.18494 17.8121 9.18463 17.3123 10.1218L17.1249 10.4967C12.3139 19.8688 7.62782 29.3658 3.31667 38.7379L3.25419 38.8629C2.81683 39.8625 2.31698 40.9247 1.81714 42.0494C1.50474 42.7366 1.19234 43.4864 0.879933 44.2987C0.0676872 46.6104 -0.182235 48.7972 0.130168 51.0465C0.817453 55.7326 3.94148 59.6689 8.25263 61.4183C9.87712 62.1056 11.5641 62.418 13.3135 62.418C13.8134 62.418 14.4382 62.3555 14.938 62.293C16.9999 62.0431 19.1242 61.3558 21.1861 60.1687C23.7478 58.7316 26.1845 56.6698 28.9337 53.6707C31.6828 56.6698 34.182 58.7316 36.6812 60.1687C38.7431 61.3558 40.8674 62.0431 42.9293 62.293C43.4291 62.3555 44.0539 62.418 44.5538 62.418C46.3032 62.418 48.0527 62.1056 49.6147 61.4183C53.9883 59.6689 57.0499 55.6701 57.7372 51.0465C58.237 48.8597 57.9871 46.6729 57.1748 44.3611ZM28.9961 47.6101C25.6222 43.3614 23.4354 39.3627 22.6856 35.9888C22.3732 34.5517 22.3107 33.3021 22.4982 32.1774C22.6231 31.1778 22.998 30.303 23.4979 29.5533C24.685 27.8663 26.6844 26.8041 28.9961 26.8041C31.3079 26.8041 33.3698 27.8038 34.4944 29.5533C34.9943 30.303 35.3692 31.1778 35.4941 32.1774C35.6816 33.3021 35.6191 34.6142 35.3067 35.9888C34.5569 39.3002 32.3701 43.299 28.9961 47.6101ZM53.9259 50.5467C53.4885 53.7957 51.3017 56.6073 48.2401 57.8569C46.7406 58.4817 45.1161 58.6692 43.4916 58.4817C41.9296 58.2943 40.3676 57.7944 38.7431 56.8572C36.4938 55.6076 34.2445 53.6707 31.6203 50.7966C35.744 45.7357 38.2433 41.1122 39.1805 36.9884C39.6178 35.0515 39.6803 33.3021 39.4929 31.6776C39.2429 30.1156 38.6806 28.6785 37.8059 27.4289C35.869 24.6173 32.62 22.9928 28.9961 22.9928C25.3723 22.9928 22.1233 24.6798 20.1864 27.4289C19.3117 28.6785 18.7493 30.1156 18.4994 31.6776C18.2495 33.3021 18.312 35.114 18.8118 36.9884C19.749 41.1122 22.3107 45.7982 26.372 50.8591C23.8103 53.7332 21.4985 55.6701 19.2492 56.9197C17.6247 57.8569 16.0627 58.3568 14.5007 58.5442C12.8137 58.7316 11.1892 58.4817 9.75216 57.9194C6.69062 56.6698 4.5038 53.8582 4.06644 50.6092C3.879 49.0472 4.00396 47.4852 4.62876 45.7357C4.8162 45.1109 5.12861 44.4861 5.44101 43.7363C5.87837 42.7366 6.37821 41.6745 6.87806 40.6123L6.94054 40.4873C11.2517 31.1778 15.8752 21.6807 20.6862 12.4336L20.8737 12.0587C21.3735 11.1215 21.8734 10.1218 22.3732 9.18463C22.8731 8.18494 23.4354 7.24774 24.1227 6.43549C25.4348 4.93596 27.1842 4.12371 29.1211 4.12371C31.058 4.12371 32.8075 4.93596 34.1195 6.43549C34.8068 7.24774 35.3692 8.18494 35.869 9.18463C36.3688 10.1218 36.8687 11.1215 37.3685 12.0587L37.556 12.4336C42.3045 21.7432 46.928 31.2402 51.2392 40.5498V40.6123C51.739 41.612 52.1764 42.7366 52.6762 43.7363C52.9886 44.4861 53.301 45.1109 53.4885 45.7357C53.9883 47.3602 54.1758 48.9222 53.9259 50.5467Z" fill="#FF5A5F"/>
</svg>
