<svg width="200" height="99" viewBox="0 0 200 99" fill="none" xmlns="http://www.w3.org/2000/svg">
<path d="M86.6525 40.9432C86.7532 40.6885 86.8554 40.2821 86.8554 40.0281C86.8554 38.6562 85.7885 37.995 84.6705 37.995C83.705 37.995 83.0949 38.4526 82.7388 39.5202L78.2669 53.1914L73.1338 39.418C72.8288 38.5547 72.2705 37.995 71.2021 37.995C70.1352 37.995 69.5762 38.554 69.2719 39.418L64.1892 53.1914L59.7172 39.5202C59.3611 38.4533 58.7511 37.995 57.7856 37.995C56.6676 37.995 55.6007 38.6562 55.6007 40.0281C55.6007 40.2821 55.7014 40.6885 55.8036 40.9432L62.0547 59.4929C62.2583 60.3058 62.918 60.8655 64.0367 60.8655C65.1547 60.8655 65.7647 60.2555 66.0698 59.4418L71.2021 45.3641L76.3863 59.4418C76.6913 60.3051 77.3518 60.8655 78.4194 60.8655C79.487 60.8655 80.0964 60.3576 80.4014 59.4929L86.6525 40.9432ZM40.0503 56.6238L32.6547 49.2727L40.0503 41.9224C40.9842 40.9871 41.0575 39.5497 40.0503 38.5439C39.0439 37.5375 37.6065 37.6087 36.6726 38.5439L27.6741 47.5425C27.4459 47.7684 27.2658 48.0381 27.1448 48.3355C27.0237 48.6329 26.9642 48.9517 26.9698 49.2727C26.9641 49.5938 27.0237 49.9126 27.1447 50.21C27.2658 50.5073 27.4458 50.7771 27.6741 51.0029L36.6726 60.0008C37.6065 60.936 39.0439 61.008 40.0503 60.0008C41.0561 58.9957 40.9842 57.5583 40.0503 56.6238ZM25.8367 58.3051V40.2116C25.8367 38.8907 24.8208 37.8231 23.4482 37.8231C22.0755 37.8231 21.0597 38.8907 21.0597 40.2116V58.3051C21.0597 59.6252 22.0244 60.6929 23.4482 60.6929C24.8712 60.6929 25.8367 59.6252 25.8367 58.3044V58.3051ZM46.0561 40.3842V58.4756C46.0561 59.7972 47.0223 60.8655 48.4446 60.8655C49.869 60.8655 50.8345 59.7972 50.8345 58.4756V40.3842C50.8345 39.0626 49.8172 37.9957 48.4453 37.9957C47.0734 37.9957 46.0561 39.0626 46.0561 40.3842ZM91.7036 40.3842V58.4756C91.7036 59.7972 92.669 60.8655 94.0921 60.8655C95.5151 60.8655 96.4806 59.7972 96.4806 58.4756V40.3842C96.4806 39.0626 95.464 37.9957 94.0921 37.9957C92.7201 37.9957 91.7036 39.0626 91.7036 40.3842ZM91.7036 40.3842V58.4756C91.7036 59.7972 92.669 60.8655 94.0921 60.8655C95.5151 60.8655 96.4806 59.7972 96.4806 58.4756V40.3842C96.4806 39.0626 95.464 37.9957 94.0921 37.9957C92.7201 37.9957 91.7036 39.0626 91.7036 40.3842ZM91.7036 40.3842V58.4756C91.7036 59.7972 92.669 60.8655 94.0921 60.8655C95.5151 60.8655 96.4806 59.7972 96.4806 58.4756V40.3842C96.4806 39.0626 95.464 37.9957 94.0921 37.9957C92.7201 37.9957 91.7036 39.0626 91.7036 40.3842ZM140.049 42.154C142.189 42.154 143.437 42.9713 144.632 43.8821C145.109 44.2116 145.576 44.3713 146.058 44.3713C147.218 44.3713 148.094 43.4821 148.094 42.3037C148.094 41.754 147.87 41.2634 147.412 40.8044C145.707 39.0396 142.955 37.9864 140.049 37.9864C133.459 37.9864 128.855 42.6555 128.855 49.3403C128.855 56.026 133.458 60.695 140.05 60.695C142.955 60.695 145.703 59.6454 147.4 57.8885C147.866 57.4209 148.094 56.9274 148.094 56.3778C148.094 55.1993 147.218 54.3101 146.058 54.3101C145.575 54.3101 145.098 54.4778 144.598 54.8238C143.469 55.6857 142.188 56.5274 140.049 56.5274C136.101 56.5274 133.344 53.572 133.344 49.3403C133.344 45.1087 136.101 42.154 140.049 42.154ZM162.289 37.9864C155.872 37.9864 151.032 42.8677 151.032 49.3403C151.032 55.8137 155.871 60.695 162.289 60.695C168.706 60.695 173.546 55.8137 173.546 49.3403C173.546 42.8677 168.707 37.9864 162.289 37.9864ZM162.289 56.6396C157.836 56.6396 155.506 52.9677 155.506 49.3403C155.506 44.549 158.919 42.0418 162.289 42.0418C166.744 42.0418 169.075 45.7137 169.075 49.3403C169.075 54.1324 165.661 56.6396 162.289 56.6396ZM197.848 38.1144C197.021 38.1144 196.294 38.6044 195.904 39.4238L188.946 53.9921L188.885 53.8641L181.911 39.395C181.43 38.5216 180.807 38.1144 179.95 38.1144C179.673 38.1115 179.399 38.1638 179.142 38.2683C178.886 38.3728 178.654 38.5275 178.458 38.7232C178.262 38.9188 178.108 39.1516 178.004 39.4078C177.899 39.6641 177.847 39.9385 177.85 40.2152V58.4339C177.85 59.59 178.812 60.5662 179.95 60.5662C181.105 60.5662 182.081 59.59 182.081 58.4339V48.7533L187.103 59.395C187.504 60.1936 188.091 60.5662 188.947 60.5662C189.764 60.5662 190.437 60.1353 190.796 59.3842L195.748 48.7555V58.467C195.748 59.6245 196.691 60.5662 197.848 60.5662C199.043 60.5662 199.979 59.6439 199.979 58.467V40.2468C199.979 38.972 199.123 38.1144 197.848 38.1144Z" fill="#171B1E"/>
<path d="M107.866 70.3309C107.252 69.8752 106.507 69.6297 105.742 69.6309C105.181 69.6319 104.628 69.7641 104.127 70.017C103.626 70.2698 103.192 70.6362 102.858 71.0871C98.3655 77.1734 92.023 82.2763 84.5151 85.8432C76.7086 89.5554 67.7856 91.5158 58.6849 91.5158C44.7993 91.5158 31.7763 87.0504 22.0158 78.9403C17.3302 75.0525 13.6597 70.5389 11.1058 65.5259C8.49209 60.3928 7.16619 54.9475 7.16475 49.3417C7.16619 43.736 8.49209 38.2899 11.1058 33.1554C14.9496 25.6079 21.3576 19.164 29.6374 14.5209C38.218 9.70791 48.2676 7.16403 58.7036 7.16403C67.8029 7.16403 76.7475 9.13525 84.5712 12.8647C92.095 16.4504 98.441 21.5748 102.924 27.6849C103.258 28.1377 103.693 28.5059 104.195 28.7599C104.697 29.014 105.252 29.1467 105.814 29.1475C106.576 29.1488 107.318 28.9054 107.931 28.4532C108.696 27.8903 109.206 27.047 109.35 26.1083C109.494 25.1697 109.26 24.2122 108.699 23.446C103.514 16.3849 96.2381 10.4892 87.654 6.39712C78.8741 2.21223 68.8633 0.000719425 58.705 0C43.1496 0.0028777 28.495 5.05612 17.4389 14.2281C12 18.7439 7.72158 24.0173 4.7223 29.9036C1.58777 36.0511 -0.00143787 42.5906 9.76157e-07 49.341C-0.00143787 56.0914 1.58777 62.6302 4.7223 68.7777C9.21727 77.5928 16.6216 85.0727 26.1331 90.4079C35.782 95.8187 47.0446 98.6799 58.7036 98.6806C68.8353 98.6806 78.8245 96.4791 87.5907 92.3137C96.1583 88.2403 103.43 82.3712 108.622 75.341C109.185 74.5759 109.421 73.6188 109.28 72.6794C109.138 71.7401 108.63 70.896 107.866 70.3309Z" fill="#00A991"/>
<path d="M113.596 45.395C112.55 45.3964 111.547 45.8125 110.808 46.5521C110.068 47.2917 109.652 48.2945 109.651 49.3403C109.652 50.3862 110.068 51.389 110.808 52.1286C111.547 52.8682 112.55 53.2843 113.596 53.2857C114.642 53.2843 115.644 52.8682 116.384 52.1286C117.123 51.389 117.539 50.3862 117.54 49.3403C117.539 48.2945 117.123 47.2917 116.384 46.5521C115.644 45.8125 114.642 45.3964 113.596 45.395Z" fill="#00A991"/>
</svg>
