<svg width="200" height="49" viewBox="0 0 200 49" fill="none" xmlns="http://www.w3.org/2000/svg">
<path d="M3.71766 27.6482C4.06619 27.4739 4.47285 27.4739 4.82138 27.2997C4.2405 26.6607 3.60145 26.0798 3.13675 25.3247C2.96248 25.0923 3.07868 25.0342 3.19485 24.9762C3.31103 24.9762 3.25294 24.7438 3.31103 24.6276C3.54338 24.5695 3.54338 24.2791 3.65955 24.1048C3.65955 24.0467 3.65957 23.8724 3.71766 23.8143C3.77575 23.7563 3.8919 23.6982 4.00808 23.8143C4.47278 24.3952 4.99563 24.7438 5.51842 25.1504C6.15739 25.6151 6.85444 25.9637 7.37723 26.5445C7.43532 26.5445 7.6096 26.6607 7.6096 26.5445C7.66769 25.9637 7.90003 25.3828 8.13238 24.9181C8.19047 24.7438 8.24856 24.5114 8.36473 24.3372C8.539 23.9886 8.94562 23.7563 9.23606 23.5239C9.7589 23.2335 10.3398 23.5239 10.7464 23.0592C10.8626 22.943 11.0949 23.0592 11.2111 23.0592C11.5596 23.2335 12.0243 23.1173 12.3148 23.4077C11.8501 24.4533 11.8501 25.557 11.5015 26.6607C11.4435 26.8931 11.3273 27.2416 11.4435 27.3578C11.9662 27.532 13.3023 27.2997 13.3604 27.2416C14.0575 27.2416 14.6964 27.2416 15.3935 27.4159C15.9163 27.532 16.2648 27.7644 16.7296 28.171C17.4847 28.7519 17.4847 29.7975 17.3685 30.727C17.3685 30.785 17.02 31.1335 16.9038 31.0755C16.8457 31.0755 16.8457 30.8431 16.7877 30.785C16.4972 31.0174 15.9744 31.5402 15.8002 31.5402C15.7421 31.5402 15.3935 31.1916 15.2193 31.0755C14.6384 30.6688 13.9413 30.785 13.3023 30.8431C12.5472 30.9012 11.792 30.785 11.0368 31.1335C11.3273 31.6564 11.792 31.9468 12.2567 32.3534C12.9538 33.0505 13.6509 33.5733 14.3479 34.2703C14.8126 34.7931 15.2774 35.1417 15.5678 35.7225C15.3935 35.8388 15.5678 35.8969 15.4516 36.013C15.3355 36.0711 15.3355 35.8388 15.2193 35.8388C15.1031 35.8388 15.045 36.013 15.045 36.1292C15.1031 36.1873 14.9288 36.5358 14.8127 36.5358C14.7546 36.5939 14.4641 36.7682 14.348 36.7682C14.2899 36.7682 13.9413 36.5939 13.9413 36.652C14.0575 36.8263 14.1737 37.0586 14.1156 37.1167C13.8252 37.0586 13.6509 37.0586 13.4766 36.8263C12.5472 36.013 11.6759 35.1417 10.6884 34.2703C10.3398 33.9218 10.1075 33.4571 9.64273 33.1086C8.94567 34.735 8.48096 35.8969 7.7839 37.5233C7.60964 37.8138 7.55155 38.569 7.37729 38.627C7.26111 38.6851 6.85449 38.1042 6.62214 37.6395C6.62214 36.652 6.73833 36.3035 6.79642 35.2579V35.0836C6.85451 33.7475 7.26112 32.5858 7.20303 31.1916C7.20303 31.0755 7.02877 31.0174 6.85451 31.0174C5.11181 30.8431 3.42719 30.6107 1.68455 30.3784C1.27793 30.3203 0.871313 30.3203 0.464697 30.146C0.406609 30.088 0.174262 29.9718 0.116174 29.9718C0.0580864 29.9137 0.058088 29.9137 0 29.9137C0.697056 29.2166 1.27796 28.4615 2.26546 28.0549C2.73016 28.0549 3.42722 27.7644 3.71766 27.6482Z" fill="#F58025"/>
<path d="M19.9244 37.0586C19.8082 37.0005 19.8663 36.8844 19.8663 36.8844C19.9825 36.7101 20.2149 36.7101 20.331 36.7101C20.7957 36.5939 21.3186 36.7101 21.7832 36.5939C21.8995 36.5358 21.9575 36.4197 22.0156 36.4197C22.3642 36.2454 22.7127 36.1873 23.1193 36.0711C23.2355 36.013 23.4678 35.8969 23.3517 35.7226C22.945 35.2579 22.5384 34.8513 22.3061 34.3284C22.1899 34.038 21.9575 33.8057 21.9575 33.5152C21.9575 33.2829 22.248 33.2248 22.4803 33.3409C23.5259 33.9218 24.223 34.7931 24.9782 35.7226C25.0944 35.8969 25.2686 35.4903 25.3267 35.316C25.6752 34.5608 25.9076 33.6895 26.3142 32.9343C26.4304 32.702 26.6046 32.4115 26.837 32.3535C27.1855 32.2373 27.4179 32.0049 27.7083 31.8307C27.9407 31.7145 28.1149 31.8307 28.3473 31.7145C28.4635 31.6564 28.6958 31.8887 28.8701 31.8307C29.1606 31.6564 29.3929 31.7726 29.6834 31.8307C29.8576 31.9468 29.9157 32.1211 29.8576 32.2954C29.5672 32.9924 29.451 33.6895 28.9863 34.3865C28.6378 34.9093 28.4054 35.4322 27.9988 35.955C27.9988 36.013 27.9407 36.1292 28.0568 36.1292C28.2892 36.1873 28.5796 36.1292 28.7539 36.2454C29.451 36.4778 30.148 36.4197 30.9032 36.5358C31.2517 36.652 31.2517 37.1748 31.6003 37.4652C31.7745 37.5814 31.4841 37.7557 31.2517 37.8138C30.7289 37.988 30.2062 37.7557 29.6834 37.93C28.812 38.1042 27.9407 37.93 27.1274 38.2785C27.4179 38.5689 27.7083 38.8013 27.9407 39.0918L28.6378 40.1373C28.8701 40.544 28.9863 40.8925 29.1025 41.2991C29.2186 41.4734 29.1606 41.7638 29.1606 41.9962C29.0444 41.9381 29.0444 41.7638 28.9863 41.7057C28.8701 41.7057 28.812 41.88 28.6378 41.88C28.5216 41.8219 28.4635 41.7057 28.4054 41.6476C28.2312 41.4734 28.0569 41.1829 27.9988 40.9506C27.6503 40.1954 27.0113 39.7307 26.4304 39.266C25.8495 40.4859 25.4429 41.7057 24.6296 42.8675C24.5715 42.9837 24.4554 42.9837 24.2811 42.9837C24.223 42.9256 24.1649 43.0999 24.1069 43.0999C24.0488 42.9837 23.9907 42.9837 23.9326 42.9256C23.7002 42.7514 23.3517 42.519 23.2936 42.2285C23.1774 41.9381 23.0612 41.7057 23.0612 41.4153C23.0612 41.3572 22.945 41.241 22.945 41.241C23.0612 41.0668 23.0612 40.7763 23.1193 40.6601C23.2355 40.4859 23.4678 40.3116 23.4678 40.1373C23.7002 39.5565 24.1069 39.0917 24.223 38.5108C23.1193 38.3366 21.9575 38.3947 20.8539 37.988C20.6215 37.8719 20.3311 37.8138 20.0987 37.6395C19.9825 37.2329 20.0406 37.1167 19.9244 37.0586Z" fill="#003E74"/>
<path d="M21.2604 18.993C21.609 18.1217 22.1898 17.5989 22.2479 16.6114C20.3891 15.5658 18.1817 16.2047 16.7876 13.765C16.439 13.2422 16.7876 10.8025 16.9618 10.512C17.3684 9.64069 18.1817 9.64069 18.9369 10.2216C18.9949 10.1635 19.5758 10.3377 19.692 10.3958C20.4472 10.2797 21.2604 10.5701 22.0737 10.7444C23.1193 10.8605 23.9906 11.2672 24.9781 11.151C25.0362 11.0929 25.1524 10.8606 25.1524 10.5702C24.92 9.1179 24.5715 7.83996 24.2229 6.32962C24.0487 5.98109 24.1067 5.51639 23.9906 5.16786C23.9325 4.29654 23.3516 2.96047 23.8744 2.55385C23.9325 2.49576 24.0487 2.72811 24.1067 2.67003C24.281 2.55385 24.3391 2.3215 24.5134 2.37959C26.3142 3.59943 27.8244 5.4583 29.4509 7.25908C29.9737 7.78182 30.0899 6.38776 30.4965 5.92301C30.6127 5.69065 30.4965 5.16786 30.6127 4.9936C31.0193 4.2384 31.0774 3.30899 31.4259 2.61194C32.0649 1.74062 32.4134 0.404541 33.3429 0.0560134C33.9819 -0.118251 34.6789 0.114102 35.2598 0.75307C35.376 0.811158 35.6664 0.75307 35.8407 0.927334C36.4797 1.50821 37.0025 2.26341 37.6996 2.96047C37.9319 3.25091 38.0481 3.7737 37.9319 4.00605C37.7576 4.9936 36.8863 5.05169 36.3635 5.74869C35.376 7.37521 34.3304 9.00172 33.3429 10.6282C33.2267 10.8605 32.9363 11.3833 33.1686 11.6157C34.5628 13.0098 35.7826 14.462 37.351 15.5658C38.3385 16.2047 39.3841 16.1467 40.2554 17.018C40.8944 17.7731 41.3592 18.5864 41.6496 19.5739C38.1062 21.8394 34.098 18.1217 30.3223 18.1797C30.0318 18.2378 30.0899 18.6445 30.0899 18.8188C30.2642 20.4452 30.5546 22.0136 30.7289 23.582C30.787 24.6857 31.3679 25.7894 31.5421 26.835C31.6002 27.2416 31.9487 28.2872 31.4259 28.2291C30.8451 28.2291 30.0318 28.0548 29.6252 27.1254C29.1024 25.9056 28.5796 24.6276 28.173 23.2916C28.1149 22.885 27.9406 22.5364 28.1149 22.1879C28.173 21.5489 27.7664 20.968 27.5921 20.5033C27.4759 20.271 27.2436 20.6195 27.0693 20.7357C26.5465 21.4327 26.0237 22.0717 25.559 22.885C24.6877 24.1048 23.7001 24.86 22.5384 25.3828C21.667 25.7313 20.3891 25.9056 19.8082 24.5695C20.0986 24.5114 20.331 23.8725 20.1567 23.6982C18.8207 21.6651 20.6795 20.4452 21.2604 18.993Z" fill="#7BAED4"/>
<path d="M60.2962 41.8219H57.0432V24.4534H60.2962V27.3578C61.516 25.4409 63.0264 24.163 65.9308 24.163H66.1632V26.9512H65.9308C64.5367 26.9512 63.433 27.4159 62.4455 28.3454C61.2256 29.5071 60.3543 31.3078 60.2962 32.8182V41.8219Z" fill="#003E74"/>
<path d="M73.2501 42.1704C69.3582 42.1704 67.6155 39.6144 67.6155 37.2909C67.6155 33.5732 70.7523 31.5982 78.8267 30.2041V29.4489C78.8267 27.532 77.6649 26.5445 75.3994 26.5445C72.3788 26.5445 71.3332 28.4614 71.0427 29.0423L70.9846 29.2747L68.0221 27.9967L68.1383 27.7643C69.4163 25.4989 72.2626 24.0466 75.3413 24.0466C78.7104 24.0466 82.0796 25.6731 82.0796 29.3327V37.8718C82.0796 39.6144 82.2539 40.5439 82.4862 41.4733L82.5443 41.7637H79.1751L78.9428 39.6726C77.7229 40.9505 75.806 42.1704 73.2501 42.1704ZM78.7685 32.7018C73.4244 33.6313 70.8104 35.1416 70.8104 37.2909C70.8104 38.6851 72.2626 39.6726 73.5406 39.6726C75.167 39.6726 77.3163 38.5688 78.7685 37.0005V32.7018Z" fill="#003E74"/>
<path d="M93.3488 41.8219H89.3988L83.8223 24.4534H87.1333L91.49 38.1043L95.8466 24.4534H98.8092L93.3488 41.8219Z" fill="#003E74"/>
<path d="M122.277 41.822H118.966V18.7026L122.277 17.3085V41.822Z" fill="#003E74"/>
<path d="M133.082 42.1704C128.377 42.1704 125.24 38.5689 125.24 33.1666C125.24 27.7643 128.377 24.1628 133.082 24.1628C137.787 24.1628 140.924 27.7643 140.924 33.1666C140.924 38.5689 137.787 42.1704 133.082 42.1704ZM133.082 26.6026C130.235 26.6026 128.493 29.0423 128.493 33.1666C128.493 37.2909 130.235 39.7307 133.082 39.7307C135.928 39.7307 137.671 37.2909 137.671 33.1666C137.671 29.0423 135.928 26.6026 133.082 26.6026Z" fill="#003E74"/>
<path d="M150.624 42.1704C145.919 42.1704 142.782 38.5689 142.782 33.1666C142.782 27.7643 145.919 24.1628 150.624 24.1628C153.994 24.1628 156.375 25.7313 157.653 28.8681L157.769 29.1004L154.691 30.0298L154.633 29.8556C154.168 28.4034 153.064 26.6607 150.624 26.6607C147.72 26.6607 146.035 29.0423 146.035 33.2247C146.035 37.4071 147.72 39.7888 150.624 39.7888C152.89 39.7888 153.994 39.0336 155.33 36.7681L155.446 36.5939L158.234 37.5814L158.118 37.8137C156.085 40.9506 153.994 42.1704 150.624 42.1704Z" fill="#003E74"/>
<path d="M163.869 41.8219H160.616V24.4534H163.869V41.8219Z" fill="#003E74"/>
<path d="M50.1887 42.1706C47.7489 42.1706 46.1225 41.6477 45.832 39.208V26.9513H43.218V24.5115H45.832V19.7482L49.085 18.3541V24.5115H53.2674L52.6284 26.9512H49.1431V38.8014C49.1431 39.2661 49.3754 39.7308 50.9438 39.7308C51.757 39.7308 52.396 39.6727 53.4417 39.4984L53.7902 39.4403L53.1512 41.88H53.035C52.1056 42.0543 51.4085 42.1706 50.1887 42.1706Z" fill="#003E74"/>
<path d="M181.586 48.2118C180.715 48.2118 179.669 48.0956 179.262 48.0376L179.03 47.9795L179.785 45.5397H180.192C180.482 45.5978 180.831 45.5978 181.237 45.5978C182.864 45.5978 184.839 45.1912 185.652 41.7639L179.379 24.3954H182.457L182.515 24.5115L187.104 36.9426L191.171 24.3373H194.598L188.266 43.1C186.64 47.5728 183.387 48.2118 181.586 48.2118Z" fill="#003E74"/>
<path d="M174.325 42.1705C171.885 42.1705 170.258 41.6477 169.968 39.208V26.8931H167.354V24.4534H169.968V19.6901L173.221 18.296V24.4534H177.403L176.764 26.8932H173.279V38.7433C173.279 39.208 173.511 39.6727 175.08 39.6727C175.893 39.6727 176.532 39.6146 177.578 39.4404L177.926 39.3823L177.287 41.822H177.171C176.242 42.0544 175.544 42.1705 174.325 42.1705Z" fill="#003E74"/>
<path d="M108.568 42.1704C106.361 42.1704 104.386 41.4152 102.875 40.0211C101.133 38.3946 100.261 36.0129 100.261 33.1666C100.261 27.7643 103.398 24.1628 108.103 24.1628C110.078 24.1628 111.937 24.8018 113.215 26.0217C114.667 27.4158 115.481 29.507 115.481 32.063V33.8637H103.573C103.689 37.2328 105.78 39.7307 108.568 39.7307C110.543 39.7307 112.228 38.8013 113.215 37.0586L113.331 36.8262L115.423 38.8593L115.306 39.0336C113.215 41.938 111.937 42.1704 108.568 42.1704ZM103.631 31.3659H112.17C112.112 28.4034 110.601 26.6026 108.161 26.6026C105.548 26.6026 103.921 28.3452 103.631 31.3659Z" fill="#003E74"/>
<path d="M163.869 21.9556H160.616V18.7026H163.869V21.9556Z" fill="#003E74"/>
<path d="M195.876 25.7314C195.992 25.499 196.166 25.2667 196.34 25.0924C196.515 24.9181 196.747 24.7438 197.037 24.6276C197.27 24.5115 197.56 24.4534 197.851 24.4534C198.141 24.4534 198.432 24.5115 198.664 24.6276C198.896 24.7438 199.129 24.86 199.361 25.0924C199.535 25.2667 199.71 25.499 199.826 25.7314C199.942 25.9637 200 26.2541 200 26.5446C200 26.835 199.942 27.1255 199.826 27.3578C199.71 27.5902 199.535 27.8225 199.361 28.0549C199.187 28.2291 198.954 28.4035 198.664 28.5196C198.432 28.6358 198.141 28.6939 197.851 28.6939C197.56 28.6939 197.27 28.6358 197.037 28.5196C196.805 28.4035 196.573 28.2872 196.34 28.0549C196.166 27.8806 195.992 27.6483 195.876 27.3578C195.76 27.1255 195.701 26.835 195.701 26.5446C195.701 26.2541 195.76 25.9637 195.876 25.7314ZM196.224 27.2997C196.34 27.5321 196.457 27.7063 196.573 27.8806C196.747 28.0549 196.921 28.1711 197.154 28.2872C197.386 28.4034 197.618 28.4034 197.851 28.4034C198.083 28.4034 198.315 28.3453 198.548 28.2872C198.78 28.1711 198.954 28.0549 199.071 27.8806C199.245 27.7063 199.361 27.5321 199.419 27.2997C199.535 27.0674 199.535 26.835 199.535 26.6027C199.535 26.3703 199.477 26.138 199.419 25.9056C199.303 25.6733 199.187 25.499 199.071 25.3247C198.896 25.1505 198.722 25.0343 198.548 24.9762C198.315 24.86 198.083 24.86 197.851 24.86C197.618 24.86 197.386 24.9181 197.154 24.9762C196.921 25.0924 196.747 25.2086 196.573 25.3247C196.398 25.499 196.282 25.6733 196.224 25.9056C196.108 26.138 196.108 26.3703 196.108 26.6027C196.108 26.835 196.166 27.0674 196.224 27.2997ZM197.967 25.3247C198.257 25.3247 198.49 25.3828 198.606 25.499C198.722 25.6152 198.838 25.7894 198.838 26.0218C198.838 26.2541 198.78 26.4284 198.664 26.4865C198.548 26.6027 198.374 26.6608 198.199 26.6608L198.896 27.7644H198.49L197.793 26.7189H197.386V27.7644H196.979V25.3247H197.967ZM197.793 26.4284H198.025C198.083 26.4284 198.199 26.4284 198.257 26.3703C198.315 26.3703 198.374 26.3122 198.374 26.2541C198.432 26.1961 198.432 26.138 198.432 26.0218C198.432 25.9637 198.432 25.8475 198.374 25.8475C198.315 25.8475 198.315 25.7894 198.257 25.7314C198.199 25.7314 198.141 25.6733 198.083 25.6733H197.386V26.4284H197.793Z" fill="#003E74"/>
<path d="M195.876 25.7314C195.992 25.499 196.166 25.2667 196.34 25.0924C196.515 24.9181 196.747 24.7438 197.037 24.6276C197.27 24.5115 197.56 24.4534 197.851 24.4534C198.141 24.4534 198.432 24.5115 198.664 24.6276C198.896 24.7438 199.129 24.86 199.361 25.0924C199.535 25.2667 199.71 25.499 199.826 25.7314C199.942 25.9637 200 26.2541 200 26.5446C200 26.835 199.942 27.1255 199.826 27.3578C199.71 27.5902 199.535 27.8225 199.361 28.0549C199.187 28.2291 198.954 28.4035 198.664 28.5196C198.432 28.6358 198.141 28.6939 197.851 28.6939C197.56 28.6939 197.27 28.6358 197.037 28.5196C196.805 28.4035 196.573 28.2872 196.34 28.0549C196.166 27.8806 195.992 27.6483 195.876 27.3578C195.76 27.1255 195.701 26.835 195.701 26.5446C195.701 26.2541 195.76 25.9637 195.876 25.7314ZM196.224 27.2997C196.34 27.5321 196.457 27.7063 196.573 27.8806C196.747 28.0549 196.921 28.1711 197.154 28.2872C197.386 28.4034 197.618 28.4034 197.851 28.4034C198.083 28.4034 198.315 28.3453 198.548 28.2872C198.78 28.1711 198.954 28.0549 199.071 27.8806C199.245 27.7063 199.361 27.5321 199.419 27.2997C199.535 27.0674 199.535 26.835 199.535 26.6027C199.535 26.3703 199.477 26.138 199.419 25.9056C199.303 25.6733 199.187 25.499 199.071 25.3247C198.896 25.1505 198.722 25.0343 198.548 24.9762C198.315 24.86 198.083 24.86 197.851 24.86C197.618 24.86 197.386 24.9181 197.154 24.9762C196.921 25.0924 196.747 25.2086 196.573 25.3247C196.398 25.499 196.282 25.6733 196.224 25.9056C196.108 26.138 196.108 26.3703 196.108 26.6027C196.108 26.835 196.166 27.0674 196.224 27.2997ZM197.967 25.3247C198.257 25.3247 198.49 25.3828 198.606 25.499C198.722 25.6152 198.838 25.7894 198.838 26.0218C198.838 26.2541 198.78 26.4284 198.664 26.4865C198.548 26.6027 198.374 26.6608 198.199 26.6608L198.896 27.7644H198.49L197.793 26.7189H197.386V27.7644H196.979V25.3247H197.967ZM197.793 26.4284H198.025C198.083 26.4284 198.199 26.4284 198.257 26.3703C198.315 26.3703 198.374 26.3122 198.374 26.2541C198.432 26.1961 198.432 26.138 198.432 26.0218C198.432 25.9637 198.432 25.8475 198.374 25.8475C198.315 25.8475 198.315 25.7894 198.257 25.7314C198.199 25.7314 198.141 25.6733 198.083 25.6733H197.386V26.4284H197.793Z" fill="#003E74"/>
</svg>
