<svg width="200" height="43" viewBox="0 0 200 43" fill="none" xmlns="http://www.w3.org/2000/svg">
<path d="M198.876 28.4288C198.255 28.4288 197.752 28.9327 197.752 29.553C197.752 30.1734 198.255 30.6773 198.876 30.6773C199.496 30.6773 200 30.1734 200 29.553C200 28.9327 199.496 28.4288 198.876 28.4288ZM198.876 30.499C198.353 30.499 197.93 30.0735 197.93 29.553C197.93 29.0301 198.355 28.6071 198.876 28.6071C199.399 28.6071 199.824 29.0325 199.824 29.553C199.824 30.0735 199.399 30.499 198.876 30.499ZM199.242 29.3605C199.242 29.1561 199.097 29.0349 198.883 29.0349H198.524V30.0593H198.7V29.6885H198.892L199.078 30.0593H199.268L199.063 29.6505C199.173 29.6006 199.242 29.5007 199.242 29.3605ZM198.876 29.5292H198.702V29.1894H198.876C198.995 29.1894 199.066 29.2488 199.066 29.3582C199.066 29.4699 198.992 29.5292 198.876 29.5292ZM63.4151 17.0511V14.332H59.2463V30.5085H63.4151V20.8088C63.4151 19.0524 64.5417 18.1895 66.2982 18.1895H68.5799V14.3321H66.6309C65.105 14.332 63.7788 15.1282 63.4151 17.0511ZM72.485 7.93372C71.0589 7.93372 69.9656 9.06033 69.9656 10.4864C69.9656 11.8792 71.0589 13.0058 72.485 13.0058C73.9111 13.0058 75.0044 11.8792 75.0044 10.4864C75.0043 9.06027 73.9111 7.93372 72.485 7.93372ZM70.4053 30.5085H74.5647V14.332H70.4053V30.5085ZM94.3776 22.4202C94.3776 27.0383 90.6342 30.7819 86.016 30.7819C84.1526 30.7819 82.4627 30.171 81.1079 29.1395V35.2574H76.9485V14.332H81.1079V15.701C82.4627 14.6695 84.1526 14.0587 86.016 14.0587C90.6342 14.0587 94.3776 17.8021 94.3776 22.4202ZM90.1921 22.4202C90.1921 19.9127 88.1576 17.8782 85.65 17.8782C83.1425 17.8782 81.108 19.9127 81.108 22.4202C81.108 24.9278 83.1425 26.9623 85.65 26.9623C88.1576 26.9623 90.1921 24.9302 90.1921 22.4202ZM166.67 21.0013L164.243 20.3358C162.646 19.9198 162.026 19.4302 162.026 18.5865C162.026 17.7641 162.901 17.1889 164.151 17.1889C165.342 17.1889 166.276 17.9685 166.276 18.9667V19.0594H170.109V18.9667C170.109 16.0314 167.716 14.0586 164.151 14.0586C160.621 14.0586 158.057 16.029 158.057 18.7456C158.057 20.8586 159.457 22.4511 161.9 23.1118L164.224 23.7464C165.99 24.236 166.646 24.778 166.646 25.7501C166.646 26.7745 165.698 27.4638 164.286 27.4638C162.815 27.4638 161.824 26.532 161.824 25.1488V25.056H157.755V25.1488C157.755 28.4668 160.426 30.7865 164.253 30.7865C167.939 30.7865 170.616 28.5215 170.616 25.4031C170.616 23.8724 169.931 21.8712 166.67 21.0013ZM109.133 14.332H113.292V30.5085H109.133V29.1394C107.778 30.171 106.088 30.7818 104.225 30.7818C99.6066 30.7818 95.8632 27.0383 95.8632 22.4202C95.8632 17.802 99.6066 14.0586 104.225 14.0586C106.088 14.0586 107.778 14.6694 109.133 15.701V14.332ZM109.133 22.4202C109.133 19.9104 107.098 17.8782 104.591 17.8782C102.083 17.8782 100.049 19.9127 100.049 22.4202C100.049 24.9278 102.083 26.9623 104.591 26.9623C107.101 26.9623 109.133 24.9302 109.133 22.4202ZM128.311 8.57544H132.471V30.5108H128.311V29.1418C126.956 30.1733 125.266 30.7842 123.403 30.7842C118.785 30.7842 115.041 27.0407 115.041 22.4226C115.041 17.8044 118.785 14.061 123.403 14.061C125.266 14.061 126.956 14.6718 128.311 15.7033V8.57544ZM128.311 22.4202C128.311 19.9127 126.277 17.8782 123.769 17.8782C121.262 17.8782 119.227 19.9127 119.227 22.4202C119.227 24.9278 121.259 26.9623 123.769 26.9623C126.277 26.9623 128.311 24.9302 128.311 22.4202ZM151.782 30.5085H155.941V14.332H151.782V30.5085ZM153.862 7.93372C152.436 7.93372 151.342 9.06033 151.342 10.4864C151.342 11.8792 152.436 13.0058 153.862 13.0058C155.288 13.0058 156.381 11.8792 156.381 10.4864C156.381 9.06027 155.288 7.93372 153.862 7.93372ZM188.594 22.4202C188.594 27.0383 184.85 30.7819 180.232 30.7819C175.614 30.7819 171.871 27.0384 171.871 22.4202C171.871 17.8021 175.614 14.0587 180.232 14.0587C184.85 14.0587 188.594 17.8021 188.594 22.4202ZM184.774 22.4202C184.774 19.9127 182.74 17.8782 180.232 17.8782C177.725 17.8782 175.69 19.9127 175.69 22.4202C175.69 24.9278 177.722 26.9623 180.232 26.9623C182.74 26.9623 184.774 24.9302 184.774 22.4202ZM61.2855 8.57544H45.3301V12.2856H51.2364V30.5085H55.3816V12.2856H61.2879V8.57544H61.2855ZM141.975 26.0781L138.275 14.3321H133.906L139.456 30.5085H144.461L150.044 14.3321H145.676L141.975 26.0781ZM194.688 17.0511V14.332H190.519V30.5085H194.688V20.8088C194.688 19.0524 195.814 18.1895 197.571 18.1895H199.853V14.3321H197.904C196.378 14.332 195.054 15.1282 194.688 17.0511Z" fill="black"/>
<path d="M21.2723 42.5446C33.0206 42.5446 42.5446 33.0206 42.5446 21.2723C42.5446 9.52392 33.0206 0 21.2723 0C9.52392 0 0 9.52392 0 21.2723C0 33.0206 9.52392 42.5446 21.2723 42.5446Z" fill="#34E0A1"/>
<path d="M34.4111 17.1224L36.978 14.3296H31.2856C28.4358 12.383 24.9942 11.2493 21.2721 11.2493C17.5548 11.2493 14.1228 12.3854 11.2777 14.3296H5.57104L8.13798 17.1224C6.56457 18.5579 5.5782 20.6258 5.5782 22.9218C5.5782 27.2546 9.09114 30.7675 13.424 30.7675C15.4823 30.7675 17.3576 29.9737 18.7575 28.6759L21.2722 31.414L23.7868 28.6783C25.1868 29.9761 27.0597 30.7675 29.118 30.7675C33.4509 30.7675 36.9685 27.2546 36.9685 22.9218C36.9708 20.6234 35.9845 18.5556 34.4111 17.1224ZM13.4264 28.2315C10.4934 28.2315 8.11664 25.8547 8.11664 22.9218C8.11664 19.9888 10.4934 17.612 13.4264 17.612C16.3593 17.612 18.7361 19.9888 18.7361 22.9218C18.7361 25.8547 16.3593 28.2315 13.4264 28.2315ZM21.2745 22.7673C21.2745 19.2733 18.7338 16.2738 15.3801 14.9927C17.1936 14.2345 19.1829 13.8138 21.2721 13.8138C23.3613 13.8138 25.353 14.2345 27.1666 14.9927C23.8153 16.2762 21.2745 19.2734 21.2745 22.7673ZM29.1204 28.2315C26.1874 28.2315 23.8106 25.8547 23.8106 22.9218C23.8106 19.9888 26.1874 17.612 29.1204 17.612C32.0534 17.612 34.4301 19.9888 34.4301 22.9218C34.4301 25.8547 32.0533 28.2315 29.1204 28.2315ZM29.1204 20.1361C27.5825 20.1361 26.3371 21.3816 26.3371 22.9194C26.3371 24.4571 27.5825 25.7026 29.1204 25.7026C30.6581 25.7026 31.9036 24.4571 31.9036 22.9194C31.9035 21.3839 30.6581 20.1361 29.1204 20.1361ZM16.2096 22.9218C16.2096 24.4595 14.9641 25.705 13.4264 25.705C11.8886 25.705 10.6431 24.4595 10.6431 22.9218C10.6431 21.3839 11.8886 20.1385 13.4264 20.1385C14.9641 20.1361 16.2096 21.3839 16.2096 22.9218Z" fill="black"/>
</svg>
