<svg width="197" height="27" viewBox="0 0 197 27" fill="none" xmlns="http://www.w3.org/2000/svg">
<mask id="mask0_2002_62" style="mask-type:luminance" maskUnits="userSpaceOnUse" x="0" y="0" width="197" height="27">
<path d="M0 26.1868H196.899V1.76542e-06H0V26.1868Z" fill="white"/>
</mask>
<g mask="url(#mask0_2002_62)">
<path d="M123.805 24.9864C123.805 24.9864 128.133 26.1868 133.661 26.1868C139.552 26.1868 142.279 25.5321 142.279 25.5321V21.1675C142.279 21.1675 139.334 21.7497 135.224 21.7497C131.624 21.7497 129.405 21.2765 129.405 21.2765V15.094H140.571V10.7295H129.405V4.8378C129.405 4.8378 131.587 4.4374 134.861 4.4374C138.535 4.4374 141.843 5.01945 141.843 5.01945V0.618522C141.843 0.618522 138.934 1.76542e-06 134.206 1.76542e-06C127.914 1.76542e-06 123.805 1.12837 123.805 1.12837V24.9864ZM44.0081 15.0571C43.8623 15.4213 43.6813 16.1124 43.572 16.5126C43.4632 16.1124 43.2811 15.4213 43.1359 15.0571L38.1889 2.36456C37.3525 0.255214 36.0438 1.76542e-06 33.6433 1.76542e-06C32.8064 1.76542e-06 31.0966 0.109294 31.0966 0.109294L28.551 25.823H34.1889L35.425 8.58397L40.7714 21.6404C41.172 22.6588 41.9716 23.059 43.572 23.059C45.1717 23.059 45.9725 22.6588 46.3723 21.6404L51.7185 8.58397L52.9554 25.823H58.5922L56.0467 0.109294C56.0467 0.109294 54.337 1.76542e-06 53.5011 1.76542e-06C51.1007 1.76542e-06 49.7916 0.255214 48.9545 2.36456L44.0081 15.0571ZM15.7854 20.3312C14.5851 20.8042 11.675 21.7497 9.52963 21.7497C7.2017 21.7497 5.45616 20.9497 5.45616 18.4035C5.45616 16.1852 6.65569 14.9124 9.85736 14.8031L15.7854 14.5849V20.3312ZM12.4391 1.76542e-06C7.42002 1.76542e-06 3.49201 1.23693 1.96429 2.00094L3.16473 6.21972C3.16473 6.21972 7.02051 4.8378 10.8023 4.8378C14.0394 4.8378 15.7121 5.74665 15.7121 8.94712V10.7661H10.8023C2.47369 10.7661 0 14.5849 0 18.804C0 24.4045 4.36488 26.1868 8.32918 26.1868C12.9481 26.1868 15.6399 24.2594 15.9669 24.2594C16.2218 24.2594 17.1673 25.2773 21.3857 25.2773V7.45618C21.3857 2.11024 18.0765 1.76542e-06 12.4391 1.76542e-06ZM79.9423 20.3312C78.7417 20.8042 75.8322 21.7497 73.6869 21.7497C71.3586 21.7497 69.6127 20.9497 69.6127 18.4035C69.6127 16.1852 70.8133 14.9124 74.0138 14.8031L79.9423 14.5849V20.3312ZM76.5956 1.76542e-06C71.5763 1.76542e-06 67.6487 1.23693 66.1212 2.00094L67.3215 6.21972C67.3215 6.21972 71.1772 4.8378 74.9589 4.8378C78.196 4.8378 79.869 5.74665 79.869 8.94712V10.7661H74.9589C66.6306 10.7661 64.1569 14.5849 64.1569 18.804C64.1569 24.4045 68.5217 26.1868 72.4863 26.1868C77.105 26.1868 79.7965 24.2594 80.1237 24.2594C80.3784 24.2594 81.324 25.2773 85.5429 25.2773V7.45618C85.5429 2.11024 82.2332 1.76542e-06 76.5956 1.76542e-06ZM165.812 19.4218C164.466 20.0761 161.557 21.1675 158.902 21.1675C155.046 21.1675 154.391 19.4218 154.391 15.4213V0.218281C154.391 0.218281 154.027 0.218281 153.555 0.218281C152.282 0.218281 149.445 0.436445 148.754 0.582363V16.1487C148.754 22.9502 150.428 26.1868 157.337 26.1868C162.611 26.1868 165.702 24.1504 165.92 24.1504C165.993 24.1504 167.812 25.2773 171.45 25.2773V0.582363C171.05 0.509539 168.321 0.218281 166.939 0.218281C166.43 0.218281 165.812 0.218281 165.812 0.218281V19.4218ZM178.109 25.2773C178.109 25.2773 181.601 26.1868 186.474 26.1868C191.094 26.1868 196.913 24.6231 196.913 18.3678C196.913 14.2935 193.894 12.548 188.984 10.7661C186.329 9.78396 184.074 8.91096 184.074 7.09229C184.074 6.21972 184.729 4.5105 188.111 4.5105C191.275 4.5105 194.513 5.96497 194.513 5.96497L195.931 1.78267C194.985 1.30975 191.893 1.76542e-06 187.602 1.76542e-06C182.947 1.76542e-06 178.4 2.47355 178.4 7.45618C178.4 12.5849 183.056 14.1485 186.692 15.349C189.166 16.1852 191.239 17.0585 191.239 18.6947C191.239 20.2942 190.366 21.6771 186.184 21.6771C182.765 21.6771 179.128 20.9135 179.128 20.9135L178.109 25.2773ZM99.3632 4.8738C100.272 4.69215 102.055 4.4374 103.837 4.4374C107.91 4.4374 111.112 6.72883 111.112 12.9123C111.112 18.9133 109.547 21.7497 103.328 21.7497C101.328 21.7497 99.3632 21.4588 99.3632 21.4588V4.8738ZM104.092 1.76542e-06C100.891 1.76542e-06 96.4537 0.545737 93.726 1.52757V25.4228C95.9814 25.8963 100.201 26.1868 103.146 26.1868C113.184 26.1868 117.076 22.2587 117.076 12.9123C117.076 4.8378 112.129 1.76542e-06 104.092 1.76542e-06Z" fill="#1B69BC"/>
</g>
</svg>
