<svg width="200" height="49" viewBox="0 0 200 49" fill="none" xmlns="http://www.w3.org/2000/svg">
<path d="M76.419 11.3224C75.0253 11.3262 73.6491 11.634 72.3865 12.2242C71.1239 12.8144 70.0052 13.673 69.1085 14.7399V12.5408H61.7831V48.306H69.9257V35.78C71.7453 37.3062 74.0442 38.1426 76.419 38.1426C79.9173 38.0917 83.2525 36.6551 85.6928 34.1479C88.1331 31.6408 89.479 28.268 89.4354 24.7696C89.479 21.2713 88.1331 17.8984 85.6928 15.3913C83.2525 12.8842 79.9173 11.4476 76.419 11.3967M89.4354 24.7696C89.479 21.2713 88.1331 17.8984 85.6928 15.3913C83.2525 12.8842 79.9173 11.4476 76.419 11.3967M75.6167 30.7132C74.4317 30.7636 73.2587 30.4583 72.2487 29.8366C71.2386 29.2149 70.4376 28.3053 69.9488 27.2246C69.46 26.144 69.3056 24.9418 69.5056 23.7727C69.7056 22.6037 70.2508 21.5212 71.0711 20.6645C71.8914 19.8078 72.9492 19.2162 74.1085 18.9656C75.2678 18.7151 76.4755 18.8171 77.5763 19.2585C78.6772 19.7 79.6207 20.4607 80.2857 21.4428C80.9506 22.425 81.3065 23.5836 81.3076 24.7696C81.3253 25.5339 81.1921 26.2941 80.9155 27.0067C80.6389 27.7194 80.2244 28.3704 79.6957 28.9226C79.167 29.4747 78.5346 29.9171 77.8346 30.2244C77.1347 30.5316 76.3809 30.6977 75.6167 30.7132Z" fill="#047BC1"/>
<path d="M102.853 33.2689C102.856 34.2364 102.572 35.183 102.036 35.9889C101.501 36.7948 100.738 37.4237 99.8454 37.7959C98.9524 38.1682 97.969 38.2672 97.0198 38.0802C96.0705 37.8933 95.1981 37.4289 94.5129 36.7458C93.8277 36.0627 93.3607 35.1917 93.1708 34.243C92.981 33.2943 93.0769 32.3106 93.4465 31.4165C93.8161 30.5223 94.4426 29.758 95.2469 29.2201C96.0511 28.6823 96.9968 28.3952 97.9643 28.3952C98.6056 28.3933 99.241 28.5179 99.834 28.7619C100.427 29.006 100.966 29.3647 101.42 29.8174C101.874 30.2702 102.235 30.8081 102.48 31.4004C102.726 31.9927 102.853 32.6276 102.853 33.2689Z" fill="#FCAF17"/>
<path fill-rule="evenodd" clip-rule="evenodd" d="M52.006 9.12331C51.1031 9.12625 50.2197 8.86121 49.4676 8.36176C48.7155 7.86231 48.1285 7.15091 47.781 6.31763C47.4334 5.48436 47.341 4.5667 47.5153 3.68085C47.6896 2.795 48.1229 1.9808 48.7603 1.34135C49.3976 0.701901 50.2104 0.265967 51.0957 0.0887465C51.981 -0.088474 52.8989 0.000990318 53.7333 0.345811C54.5677 0.690631 55.281 1.2753 55.7829 2.02578C56.2849 2.77626 56.5528 3.6588 56.5528 4.56164C56.5547 5.15999 56.4386 5.75283 56.2109 6.30619C55.9833 6.85955 55.6487 7.36254 55.2263 7.78633C54.8039 8.21011 54.302 8.54636 53.7494 8.77578C53.1968 9.00521 52.6043 9.12331 52.006 9.12331Z" fill="#047BC1"/>
<path d="M56.0921 12.5408H47.9644V36.939H56.0921V12.5408Z" fill="#047BC1"/>
<path fill-rule="evenodd" clip-rule="evenodd" d="M0 1.159V7.9792H10.5646V36.9242H18.7073V7.9792H29.2719V1.159H0Z" fill="#047BC1"/>
<path d="M119.926 30.6686C118.349 30.6686 116.838 30.0424 115.723 28.9278C114.608 27.8131 113.982 26.3014 113.982 24.7251C113.982 23.1487 114.608 21.637 115.723 20.5223C116.838 19.4077 118.349 18.7815 119.926 18.7815C120.699 18.7841 121.463 18.948 122.169 19.2627C122.875 19.5774 123.508 20.036 124.027 20.6092L129.406 15.2303C127.532 13.3689 125.149 12.104 122.557 11.5952C119.966 11.0864 117.281 11.3564 114.843 12.3711C112.404 13.3859 110.321 15.1 108.856 17.2972C107.39 19.4945 106.608 22.0765 106.608 24.7176C106.608 27.3588 107.39 29.9408 108.856 32.138C110.321 34.3353 112.404 36.0494 114.843 37.0641C117.281 38.0789 119.966 38.3489 122.557 37.8401C125.149 37.3312 127.532 36.0664 129.406 34.205L124.027 28.841C123.506 29.4113 122.872 29.8679 122.167 30.1824C121.461 30.4969 120.698 30.6624 119.926 30.6686Z" fill="#047BC1"/>
<path fill-rule="evenodd" clip-rule="evenodd" d="M191.085 11.3076C189.576 11.2123 188.07 11.5351 186.733 12.2403C185.396 12.9455 184.28 14.0058 183.507 15.3046C182.766 14.0441 181.698 13.0073 180.416 12.3037C179.135 11.6001 177.687 11.2559 176.226 11.3076C174.789 11.2665 173.367 11.6166 172.114 12.3206C170.86 13.0246 169.821 14.056 169.108 15.3046V12.5409H161.798V36.9242H169.926V21.7088C169.894 21.2201 169.963 20.7302 170.128 20.2692C170.294 19.8083 170.552 19.3862 170.887 19.0289C171.222 18.6717 171.626 18.387 172.076 18.1923C172.525 17.9977 173.01 17.8972 173.499 17.8972C173.989 17.8972 174.473 17.9977 174.923 18.1923C175.372 18.387 175.777 18.6717 176.112 19.0289C176.446 19.3862 176.705 19.8083 176.87 20.2692C177.035 20.7302 177.104 21.2201 177.073 21.7088V36.9242H184.725V21.7088C184.694 21.2201 184.763 20.7302 184.928 20.2692C185.093 19.8083 185.351 19.3862 185.686 19.0289C186.021 18.6717 186.426 18.387 186.875 18.1923C187.324 17.9977 187.809 17.8972 188.299 17.8972C188.788 17.8972 189.273 17.9977 189.722 18.1923C190.171 18.387 190.576 18.6717 190.911 19.0289C191.246 19.3862 191.504 19.8083 191.669 20.2692C191.835 20.7302 191.904 21.2201 191.872 21.7088V36.9242H200V20.1783C200 14.6805 196.553 11.263 191.085 11.263" fill="#047BC1"/>
<path d="M144.309 11.3224C141.664 11.3224 139.079 12.1067 136.879 13.5761C134.68 15.0456 132.966 17.1341 131.954 19.5777C130.942 22.0213 130.677 24.7102 131.193 27.3043C131.709 29.8984 132.983 32.2812 134.853 34.1514C136.723 36.0217 139.106 37.2953 141.7 37.8113C144.294 38.3273 146.983 38.0625 149.427 37.0503C151.87 36.0382 153.959 34.3241 155.428 32.125C156.898 29.9258 157.682 27.3403 157.682 24.6953C157.682 21.1486 156.273 17.7472 153.765 15.2392C151.257 12.7313 147.856 11.3224 144.309 11.3224ZM144.309 30.6389C143.124 30.6893 141.951 30.384 140.941 29.7623C139.931 29.1406 139.13 28.231 138.641 27.1503C138.152 26.0697 137.998 24.8675 138.198 23.6984C138.398 22.5294 138.943 21.4469 139.763 20.5902C140.584 19.7335 141.642 19.1419 142.801 18.8913C143.96 18.6408 145.168 18.7428 146.269 19.1842C147.37 19.6257 148.313 20.3864 148.978 21.3686C149.643 22.3507 149.999 23.5093 150 24.6953C150.032 26.2377 149.451 27.7297 148.384 28.844C147.317 29.9583 145.851 30.6038 144.309 30.6389Z" fill="#047BC1"/>
<path d="M42.2734 12.4071C40.822 12.4044 39.3929 12.7646 38.1162 13.4549C36.8394 14.1452 35.7554 15.1437 34.9629 16.3596V12.5408H27.6375V36.9242H35.8098V26.7608C35.772 25.855 35.9226 24.9513 36.252 24.1067C36.5813 23.2622 37.0824 22.4951 37.7234 21.8541C38.3644 21.2131 39.1314 20.7121 39.976 20.3827C40.8206 20.0533 41.7243 19.9028 42.63 19.9406C43.0591 19.9475 43.4867 19.9923 43.9079 20.0743V12.6449C43.3668 12.5622 42.8207 12.5175 42.2734 12.5111" fill="#047BC1"/>
</svg>
