<svg width="200" height="34" viewBox="0 0 200 34" fill="none" xmlns="http://www.w3.org/2000/svg">
<mask id="mask0_2002_2" style="mask-type:luminance" maskUnits="userSpaceOnUse" x="0" y="0" width="200" height="34">
<path d="M0 -5.18209e-06H199.2V33.7993H0V-5.18209e-06Z" fill="white"/>
</mask>
<g mask="url(#mask0_2002_2)">
<mask id="mask1_2002_2" style="mask-type:luminance" maskUnits="userSpaceOnUse" x="0" y="0" width="200" height="34">
<path d="M0.00012207 33.7993H199.2V-4.9844e-06H0.00012207V33.7993Z" fill="white"/>
</mask>
<g mask="url(#mask1_2002_2)">
<path d="M78.1176 3.69993C78.1176 2.02218 79.4717 0.66518 81.1387 0.66518C82.8114 0.66518 84.1708 2.02218 84.1708 3.69993C84.1708 5.37551 82.8114 6.73395 81.1387 6.73395C79.4717 6.73395 78.1176 5.37551 78.1176 3.69993Z" fill="#273B7D"/>
<path d="M125.876 23.8853C125.876 22.2069 127.229 20.8484 128.896 20.8484C130.568 20.8484 131.928 22.2069 131.928 23.8853C131.928 25.5595 130.568 26.9194 128.896 26.9194C127.229 26.9194 125.876 25.5595 125.876 23.8853Z" fill="#499FDD"/>
<path d="M28.4399 22.5736C25.833 22.5736 24.0214 20.5032 24.0214 17.5447C24.0214 14.5869 25.833 12.518 28.4399 12.518C31.0617 12.518 32.8932 14.5869 32.8932 17.5447C32.8932 20.55 31.0999 22.5736 28.4399 22.5736ZM28.4399 8.09817C22.9247 8.09817 18.9221 12.0721 18.9221 17.5447C18.9221 23.0173 22.9247 26.9905 28.4399 26.9905C33.9757 26.9905 37.9949 23.0173 37.9949 17.5447C37.9949 12.0721 33.9757 8.09817 28.4399 8.09817Z" fill="#273B7D"/>
<path d="M72.2552 18.0172C72.0408 17.6137 71.795 17.2721 71.5331 17.001L71.3664 16.8241L71.5419 16.6558C71.7951 16.389 72.0538 16.0726 72.3034 15.7059L77.1704 8.47066H71.2621L67.6052 14.1302C67.3982 14.4337 66.9803 14.5869 66.3547 14.5869H65.5212V3.88689C65.5212 1.74675 64.188 1.4555 62.7476 1.4555H60.2817L60.2859 26.7122H65.5212V19.1361H66.0117C66.6084 19.1361 67.0149 19.2052 67.2012 19.5295L70.0892 24.9805C70.8959 26.4598 71.7 26.7122 73.2124 26.7122H77.2245L74.2364 21.7696L72.2552 18.0172Z" fill="#273B7D"/>
<path d="M97.6706 8.05787C95.0077 8.05787 93.3085 9.24084 92.3564 10.2412L92.0385 10.5626L91.9263 10.1254C91.6466 9.05387 90.7038 8.46417 89.2849 8.46417H86.9386L86.9533 26.7057H92.153V18.2983C92.153 17.4764 92.2599 16.763 92.4772 16.1122C93.056 14.1425 94.6705 12.9178 96.6884 12.9178C98.3115 12.9178 98.9457 13.7743 98.9457 15.9878V23.9328C98.9457 25.8219 99.8195 26.7057 101.71 26.7057H104.185L104.176 15.104C104.176 10.4943 101.927 8.05787 97.6706 8.05787Z" fill="#273B7D"/>
<path d="M81.2077 8.47215H78.7432L78.76 22.5765L78.7583 26.7101H81.389C81.4221 26.7101 81.4487 26.7137 81.4818 26.7137L82.7071 26.7101H83.9268V26.7029H83.9353L83.9458 11.2416C83.9458 9.37612 83.0522 8.47215 81.2077 8.47215Z" fill="#273B7D"/>
<path d="M48.8638 22.5736C46.2571 22.5736 44.4419 20.5032 44.4419 17.5447C44.4419 14.5869 46.2571 12.518 48.8638 12.518C51.4801 12.518 53.3168 14.5869 53.3168 17.5447C53.3168 20.55 51.524 22.5736 48.8638 22.5736ZM48.8638 8.09817C43.3431 8.09817 39.3397 12.0721 39.3397 17.5447C39.3397 23.0173 43.3431 26.9905 48.8638 26.9905C54.3939 26.9905 58.4197 23.0173 58.4197 17.5447C58.4197 12.0721 54.3939 8.09817 48.8638 8.09817Z" fill="#273B7D"/>
</g>
</g>
<mask id="mask2_2002_2" style="mask-type:luminance" maskUnits="userSpaceOnUse" x="0" y="0" width="200" height="34">
<path d="M0 -5.18209e-06H199.2V33.7993H0V-5.18209e-06Z" fill="white"/>
</mask>
<g mask="url(#mask2_2002_2)">
<mask id="mask3_2002_2" style="mask-type:luminance" maskUnits="userSpaceOnUse" x="0" y="0" width="200" height="34">
<path d="M0.000244141 0.665192H199.158V33.7562H0.000244141V0.665192Z" fill="white"/>
</mask>
<g mask="url(#mask3_2002_2)">
<mask id="mask4_2002_2" style="mask-type:luminance" maskUnits="userSpaceOnUse" x="0" y="0" width="200" height="34">
<path d="M0.000244141 33.7993H199.201V-4.9844e-06H0.000244141V33.7993Z" fill="white"/>
</mask>
<g mask="url(#mask4_2002_2)">
<path d="M160.32 22.5736C157.714 22.5736 155.898 20.5032 155.898 17.5447C155.898 14.5869 157.714 12.518 160.32 12.518C162.937 12.518 164.774 14.5869 164.774 17.5447C164.774 20.55 162.981 22.5736 160.32 22.5736ZM160.32 8.09817C154.8 8.09817 150.797 12.0721 150.797 17.5447C150.797 23.0173 154.8 26.9905 160.32 26.9905C165.851 26.9905 169.876 23.0173 169.876 17.5447C169.876 12.0721 165.851 8.09817 160.32 8.09817Z" fill="#499FDD"/>
<path d="M115.14 21.771C112.297 21.771 111.285 19.2908 111.285 16.9665C111.285 15.9425 111.544 12.605 114.867 12.605C116.518 12.605 118.718 13.0782 118.718 17.1384C118.718 20.9678 116.771 21.771 115.14 21.771ZM121.418 8.42321C120.431 8.42321 119.672 8.81657 119.292 9.53499L119.148 9.814L118.907 9.60474C118.067 8.87841 116.563 8.0169 114.119 8.0169C109.257 8.0169 105.983 11.6687 105.983 17.1031C105.983 22.5312 109.37 26.3246 114.217 26.3246C115.872 26.3246 117.18 25.9384 118.217 25.1531L118.619 24.8518V25.3588C118.619 27.7953 117.043 29.1393 114.187 29.1393C112.799 29.1393 111.535 28.8013 110.69 28.495C109.587 28.162 108.94 28.4374 108.493 29.5442L108.08 30.5654L107.496 32.0568L107.858 32.2496C109.686 33.2197 112.066 33.7986 114.217 33.7986C118.645 33.7986 123.816 31.5319 123.816 25.1531L123.835 8.42321H121.418Z" fill="#273B7D"/>
</g>
</g>
</g>
<mask id="mask5_2002_2" style="mask-type:luminance" maskUnits="userSpaceOnUse" x="0" y="0" width="200" height="34">
<path d="M0 -5.18209e-06H199.2V33.7993H0V-5.18209e-06Z" fill="white"/>
</mask>
<g mask="url(#mask5_2002_2)">
<mask id="mask6_2002_2" style="mask-type:luminance" maskUnits="userSpaceOnUse" x="0" y="0" width="200" height="34">
<path d="M0.00012207 33.7993H199.2V-4.9844e-06H0.00012207V33.7993Z" fill="white"/>
</mask>
<g mask="url(#mask6_2002_2)">
<path d="M9.07489 22.3644L4.84216 22.3602V17.2996C4.84216 16.218 5.26146 15.6557 6.18831 15.5262H9.07489C11.1352 15.5262 12.4664 16.8257 12.4679 18.9277C12.4664 21.0851 11.1683 22.3629 9.07489 22.3644ZM4.84216 8.71303V7.3812C4.84216 6.21549 5.33542 5.66104 6.41784 5.58983H8.58367C10.4412 5.58983 11.5537 6.70162 11.5537 8.5613C11.5537 9.97944 10.7922 11.6342 8.65199 11.6342H4.84216V8.71303ZM14.4807 13.7635L13.7155 13.3335L14.3835 12.7625C15.1602 12.0944 16.4626 10.5929 16.4626 7.99823C16.4626 4.02859 13.3833 1.46631 8.61751 1.46631H3.17874L2.55951 1.46488C1.14656 1.51667 0.0160537 2.66583 0.000244141 4.08757V26.6202H2.49621C2.50254 26.6216 2.50465 26.6202 2.50676 26.6216L8.72494 26.6202C14.0228 26.6202 17.4423 23.7365 17.4423 19.2699C17.4423 16.8652 16.3382 14.8091 14.4807 13.7635Z" fill="#273B7D"/>
<path d="M193.103 8.11687C190.946 8.11687 188.86 9.12724 187.521 10.8215L187.144 11.299L186.849 10.7647C185.886 9.00859 184.228 8.11687 181.923 8.11687C179.506 8.11687 177.885 9.46523 177.132 10.2671L176.64 10.8007L176.45 10.0988C176.175 9.08841 175.276 8.53179 173.913 8.53179H171.727L171.706 26.7029H176.672V18.6817C176.672 17.9791 176.759 17.2837 176.935 16.5566C177.41 14.6186 178.712 12.5338 180.902 12.7423C182.253 12.8718 182.912 13.9152 182.912 15.931V26.7029H187.913V18.6817C187.913 17.8036 187.995 17.1463 188.193 16.4869C188.595 14.6365 189.955 12.7395 192.068 12.7395C193.597 12.7395 194.162 13.6053 194.162 15.931V24.0464C194.162 25.8823 194.981 26.7029 196.816 26.7029H199.153L199.157 15.1025C199.157 10.4684 197.118 8.11687 193.103 8.11687Z" fill="#499FDD"/>
<path d="M147.922 20.3939C147.907 20.4118 145.77 22.665 142.957 22.665C140.394 22.665 137.804 21.0922 137.804 17.5814C137.804 14.5502 139.812 12.4317 142.686 12.4317C143.619 12.4317 144.681 12.7661 144.847 13.3284L144.871 13.4234C145.254 14.6984 146.413 14.7667 146.64 14.7667L149.361 14.7697V12.3915C149.361 9.25463 145.371 8.11696 142.686 8.11696C136.944 8.11696 132.778 12.1146 132.778 17.6196C132.778 23.1224 136.899 27.1143 142.581 27.1143C147.511 27.1143 150.191 23.8739 150.217 23.8415L150.36 23.6661L148.205 20.092L147.922 20.3939Z" fill="#499FDD"/>
</g>
</g>
</svg>
