<svg width="200" height="37" viewBox="0 0 200 37" fill="none" xmlns="http://www.w3.org/2000/svg">
<mask id="mask0_2002_74" style="mask-type:luminance" maskUnits="userSpaceOnUse" x="0" y="0" width="200" height="37">
<path d="M199.983 0H0V36.0868H199.983V0Z" fill="white"/>
</mask>
<g mask="url(#mask0_2002_74)">
<path d="M28.6572 36.0868H7.4138C3.32671 36.0868 0 32.7602 0 28.6572V7.4138C0 3.32671 3.32671 0 7.4138 0H28.6572C32.7602 0 36.071 3.32671 36.071 7.4138V28.6572C36.0868 32.7602 32.7602 36.0868 28.6572 36.0868Z" fill="#EF3346"/>
<path d="M12.8636 15.984C12.8636 15.683 12.6578 15.4771 12.3567 15.4771H8.83993C8.53894 15.4771 8.33301 15.683 8.33301 15.984V19.4849C8.33301 19.786 8.53894 19.9919 8.83993 19.9919H12.3409C12.6419 19.9919 12.8478 19.786 12.8478 19.4849V15.984H12.8636Z" fill="#191E3B"/>
<path d="M20.61 23.7462C20.61 23.4451 20.3882 23.2393 20.103 23.2393H16.6021C16.3011 23.2393 16.0952 23.4451 16.0952 23.7462V27.2471C16.0952 27.5481 16.3011 27.7541 16.6021 27.7541H20.103C20.4041 27.7541 20.61 27.5481 20.61 27.2471V23.7462Z" fill="#191E3B"/>
<path d="M20.61 15.984C20.61 15.683 20.4041 15.4771 20.103 15.4771H16.6021C16.3011 15.4771 16.0952 15.683 16.0952 15.984V19.4849C16.0952 19.786 16.3011 19.9919 16.6021 19.9919H20.103C20.4041 19.9919 20.61 19.786 20.61 19.4849V15.984Z" fill="#FDDB32"/>
<path d="M121.345 19.96C121.852 16.3957 123.721 14.067 127.428 14.067C131.23 14.067 133.242 16.2531 133.527 19.96H121.345ZM127.523 10.5661C121.583 10.5661 116.846 14.8432 116.846 21.9244C116.846 29.1798 121.028 33.6312 128.077 33.6312C132.133 33.6312 135.507 31.8411 137.598 29.3541C137.725 29.2273 137.772 29.1005 137.772 28.9738C137.772 28.8471 137.725 28.7204 137.598 28.5936L135.634 26.6768C135.507 26.5501 135.381 26.5026 135.254 26.5026C135.127 26.5026 135.001 26.5818 134.874 26.7243C133.258 28.4827 131.151 29.9719 128.125 29.9719C123.706 29.9719 121.583 27.2471 121.25 23.3026H137.646C137.947 23.3026 138.152 23.0808 138.152 22.7957V21.9403C138.152 15.4452 134.224 10.5661 127.523 10.5661Z" fill="#191E3B"/>
<path d="M70.8406 3.08899H67.2921C66.9912 3.08899 66.7852 3.31077 66.7852 3.59592V15.5563H52.3853V3.61176C52.3853 3.31077 52.1794 3.10484 51.8784 3.10484H48.3299C48.029 3.10484 47.823 3.32661 47.823 3.61176V32.4749C47.823 32.7758 48.029 32.9818 48.3299 32.9818H51.8784C52.1794 32.9818 52.3853 32.7601 52.3853 32.4749V19.5799H66.7852V32.4749C66.7852 32.7758 66.9912 32.9818 67.2921 32.9818H70.8406C71.1416 32.9818 71.3475 32.7601 71.3475 32.4749V3.61176C71.3634 3.31077 71.1416 3.08899 70.8406 3.08899Z" fill="#191E3B"/>
<path d="M145.931 3.08899H142.509C142.208 3.08899 142.002 3.31077 142.002 3.59592V32.4749C142.002 32.7758 142.208 32.9818 142.509 32.9818H145.931C146.232 32.9818 146.438 32.7601 146.438 32.4749V3.61176C146.438 3.31077 146.215 3.08899 145.931 3.08899Z" fill="#191E3B"/>
<path d="M87.0032 29.8768C82.2666 29.8768 79.7479 26.3283 79.7479 22.0987C79.7479 17.869 82.2666 14.3205 87.0032 14.3205C91.7399 14.3205 94.2586 17.869 94.2586 22.0987C94.2586 26.3283 91.7399 29.8768 87.0032 29.8768ZM87.0032 10.5661C80.635 10.5661 75.2964 15.271 75.2964 22.0987C75.2964 28.9263 80.635 33.6312 87.0032 33.6312C93.3715 33.6312 98.7104 28.9263 98.7104 22.0987C98.7104 15.271 93.3556 10.5661 87.0032 10.5661Z" fill="#191E3B"/>
<path d="M114.234 11.2474H108.689V4.02371C108.689 3.64352 108.309 3.46926 108.055 3.72272L104.602 7.17613C104.396 7.3821 104.253 7.60393 104.253 7.93658V11.2474H100.452C100.151 11.2474 99.9446 11.4534 99.9446 11.7543V14.1464C99.9446 14.4474 100.151 14.6534 100.452 14.6534H104.253V26.3126C104.253 30.3681 106.171 32.9819 110.226 32.9819H114.234C114.535 32.9819 114.741 32.7759 114.741 32.475V29.7503C114.741 29.4493 114.535 29.2433 114.234 29.2433H111.414C109.402 29.2433 108.689 28.4671 108.689 26.4711V14.6691H114.234C114.535 14.6691 114.741 14.4633 114.741 14.1622V11.7702C114.756 11.4692 114.535 11.2474 114.234 11.2474Z" fill="#191E3B"/>
<path d="M171.882 31.1282H170.408C170.265 31.1282 170.154 31.2233 170.154 31.3817V32.7599C170.154 32.9025 170.25 33.0134 170.408 33.0134H171.882C172.024 33.0134 172.135 32.9183 172.135 32.7599V31.3817C172.135 31.2392 172.04 31.1282 171.882 31.1282Z" fill="#191E3B"/>
<path d="M185.171 31.8255C183.793 31.8255 183.095 30.8909 183.095 29.6552C183.095 28.4671 183.776 27.485 185.171 27.485C186.549 27.485 187.246 28.4671 187.246 29.6552C187.23 30.8909 186.549 31.8255 185.171 31.8255ZM185.171 26.1702C183.254 26.1702 181.622 27.5958 181.622 29.6711C181.622 31.7939 183.254 33.172 185.171 33.172C187.088 33.172 188.719 31.7939 188.719 29.6711C188.719 27.5958 187.088 26.1702 185.171 26.1702Z" fill="#191E3B"/>
<path d="M160.061 19.96C156.56 19.1997 154.849 18.5977 154.849 16.7918C154.849 15.0808 156.386 14.067 159.126 14.067C161.566 14.067 163.482 15.1759 164.718 16.9343C164.892 17.1877 165.193 17.2353 165.446 17.0611L167.759 15.572C168.013 15.3977 168.108 15.1443 167.934 14.8432C166.049 11.976 163.07 10.5661 159.174 10.5661C154.817 10.5661 150.936 12.7046 150.936 17.0611C150.936 21.6392 154.564 22.8274 159.347 23.857C162.722 24.5858 164.211 25.1402 164.211 27.1521C164.211 29.1164 162.452 30.1461 159.506 30.1461C156.433 30.1461 154.469 28.9421 153.106 26.9461C152.932 26.6451 152.631 26.5659 152.33 26.7719L150.018 28.3719C149.763 28.5461 149.717 28.7996 149.843 29.053C151.585 31.9996 154.833 33.6629 159.458 33.6629C165.225 33.6629 168.552 30.7956 168.552 26.962C168.552 22.4789 164.844 21.0373 160.061 19.96Z" fill="#191E3B"/>
<path d="M197.512 26.1702C196.53 26.1702 195.881 26.5662 195.342 27.1998C194.993 26.6136 194.264 26.1702 193.378 26.1702C192.442 26.1702 191.857 26.6136 191.508 27.1048V26.6136C191.508 26.4711 191.413 26.3602 191.255 26.3602H190.273C190.129 26.3602 190.019 26.4552 190.019 26.6136V32.776C190.019 32.9186 190.114 33.0295 190.273 33.0295H191.302C191.445 33.0295 191.556 32.9344 191.556 32.776V29.576C191.556 28.3404 191.904 27.5008 192.981 27.5008C193.916 27.5008 194.217 28.0394 194.217 28.9265V32.7602C194.217 32.9027 194.312 33.0136 194.47 33.0136H195.5C195.643 33.0136 195.753 32.9186 195.753 32.7602V29.5602C195.753 28.3245 196.15 27.485 197.227 27.485C198.114 27.485 198.463 28.0235 198.463 28.9106V32.7443C198.463 32.8869 198.557 32.9978 198.716 32.9978H199.746C199.888 32.9978 199.999 32.9027 199.999 32.7443V28.7048C199.967 27.1998 199.033 26.1702 197.512 26.1702Z" fill="#191E3B"/>
<path d="M179.99 30.7958C179.847 30.6531 179.689 30.7007 179.594 30.7958C178.913 31.5403 178.453 31.8254 177.724 31.8254C176.489 31.8254 175.855 30.8908 175.855 29.6552C175.855 28.467 176.394 27.4849 177.677 27.4849C178.516 27.4849 178.96 27.8334 179.404 28.3245C179.499 28.4196 179.657 28.4671 179.799 28.372L180.386 27.881C180.528 27.7859 180.639 27.6275 180.481 27.4374C179.942 26.6928 179.008 26.1542 177.677 26.1542C175.649 26.1542 174.334 27.5324 174.334 29.6552C174.334 31.778 175.665 33.2037 177.629 33.2037C179.008 33.2037 179.99 32.6175 180.639 31.7304C180.735 31.5879 180.735 31.4769 180.639 31.3819L179.99 30.7958Z" fill="#191E3B"/>
<path d="M29.5927 8.80756C29.5927 7.52445 28.5631 6.49469 27.2799 6.49469H10.0286C9.68006 6.49469 9.47412 6.62146 9.26818 6.8432L5.7989 10.2966C5.54543 10.5501 5.71969 10.9462 6.09988 10.9462H25.1413V29.9876C25.1413 30.3678 25.5215 30.5421 25.7908 30.2886L29.2601 26.8352C29.4819 26.6133 29.5927 26.4075 29.5927 26.059V8.80756Z" fill="#191E3B"/>
</g>
</svg>
