<svg width="200" height="64" viewBox="0 0 200 64" fill="none" xmlns="http://www.w3.org/2000/svg">
<path d="M131.335 63.62C135.186 63.5687 138.832 62.0668 141.476 59.371C144.172 56.6752 145.674 53.0295 145.674 49.2298V14.4929C145.674 10.6418 144.172 6.99615 141.528 4.24904C138.832 1.55327 135.186 0 131.335 0H96.4313C92.5802 0.0513479 88.9345 1.55327 86.2901 4.24904C83.5943 6.99615 82.0924 10.6418 82.0924 14.4929V49.2811C82.1438 57.1759 88.5366 63.5687 96.4313 63.62" fill="#E31E25"/>
<path d="M121.451 33.7869C120.103 38.2798 122.298 42.7856 126.945 40.9756C125.597 44.2233 123.35 49.0757 123.35 54.1206C123.35 54.1206 123.35 57.5224 125.841 58.3697C125.841 58.3697 129.332 59.2169 128.588 56.1232C128.036 54.172 127.895 52.1823 128.139 50.1797C128.986 46.0334 130.282 41.9769 131.99 38.0873C131.99 38.0873 137.33 26.9319 140.424 21.7458C140.424 21.7458 141.72 19.0885 139.076 19.0885C138.28 19.0885 137.522 19.4865 137.035 20.1412L129.487 33.5815C128.344 35.6867 127.24 36.3286 126.393 36.3286C124.493 36.3286 124.891 33.2862 125.199 32.1823C126.046 28.4339 127.394 24.8395 129.191 21.3864C130.539 18.4467 127.843 18.19 127.843 18.19C126.136 17.7407 124.84 20.5391 124.84 20.5391L121.849 26.6367C119.897 30.0385 117.754 33.2862 115.456 36.4313C115.456 36.4313 115.058 36.9319 114.75 36.7394C114.454 36.4826 114.608 35.982 114.608 35.982C115.109 31.8357 115.956 27.7407 117.099 23.6842C117.15 23.4403 117.202 23.2349 117.202 22.991C117.253 22.439 117.099 21.887 116.752 21.4891C116.406 21.0398 115.905 20.7959 115.353 20.7959C114.005 20.6418 113.363 21.2837 112.157 22.7342C109.512 25.982 106.418 30.8857 104.917 33.0808C104.763 33.3376 104.467 33.2862 104.467 32.9396C104.467 31.9384 107.959 21.1425 107.959 21.1425C107.959 21.1425 108.37 19.6405 107.163 19.1399C107.163 19.1399 105.314 17.9974 103.825 20.2439L96.6239 30.0385C96.0847 30.783 95.7766 30.5391 95.7766 30.5391V29.8844L96.9319 23.4916C97.8305 18.5879 96.1232 18.344 95.0321 18.1386C94.2362 18.1386 93.3761 18.3954 92.6829 18.8446C90.4364 19.9358 88.742 24.3902 88.742 24.3902C88.742 24.3902 88.2413 25.982 89.3325 26.6367C89.6919 26.8421 90.0898 26.9833 90.4878 26.9319C92.0796 26.8421 92.3877 23.8896 93.5302 23.8896C93.7355 23.8896 93.7355 24.1335 93.7355 24.1848L90.0385 39.7304C89.7818 40.629 90.1797 41.5789 90.9371 42.0796C91.4377 42.3748 91.9897 42.4262 92.5289 42.3363C93.0295 42.1823 93.4788 41.8357 93.7869 41.3864L95.1348 39.2811C97.0732 35.828 100.668 30.8857 101.027 30.8857C101.168 30.8857 101.219 30.8857 101.219 31.0398L99.8716 40.1797C99.7304 40.9756 100.18 41.8357 100.924 42.1823C101.617 42.4262 102.375 42.3748 103.017 42.0282C103.774 41.4249 104.416 40.6803 104.865 39.8331C105.623 38.6264 109.217 34.3902 111.412 30.4878C111.566 30.231 111.707 30.4878 111.656 30.6418C111.207 32.6829 110.86 38.1386 110.809 39.4865C110.706 42.1309 112.76 42.4262 112.811 42.4262C114.159 42.5289 115.456 41.9255 116.2 40.8344" fill="white"/>
<path fill-rule="evenodd" clip-rule="evenodd" d="M13.9795 39.8331H9.98716V30.8858C10.0385 29.8845 9.83312 28.8832 9.38383 28.036C8.93453 27.3813 8.13864 26.9833 7.32991 27.086C6.63671 27.086 5.98203 27.2401 5.44288 27.5867C4.83954 27.9846 4.3389 28.5366 3.9923 29.1399V39.8331H0V23.5944H2.24647L3.73556 25.7895C4.1335 25.4429 4.54429 25.1348 4.94223 24.8396C5.34018 24.5828 5.73813 24.3903 6.18742 24.1849C6.63243 23.988 7.08173 23.8383 7.5353 23.7356C7.9846 23.6329 8.48524 23.5944 8.98588 23.5944C9.53787 23.5944 10.077 23.6329 10.5777 23.7869C10.9756 23.941 11.3864 24.0822 11.7843 24.3389C12.0796 24.5828 12.3748 24.8909 12.6316 25.1862C12.9268 25.5841 13.1322 25.9435 13.3248 26.3415C13.6329 26.0334 13.9795 25.6868 14.3774 25.3915C14.7754 25.0835 15.2246 24.7882 15.7253 24.5443C16.1789 24.2362 16.6795 23.9838 17.2272 23.7869C17.8177 23.6329 18.4211 23.543 19.0757 23.543C19.8716 23.543 20.6162 23.7356 21.3222 24.0822C21.9641 24.493 22.516 24.9936 22.8626 25.5841C23.2606 26.3415 23.5687 27.086 23.7099 27.9333C23.9153 28.8832 24.018 29.8331 24.018 30.8344V39.8331H19.9743V30.8858C20.0642 29.8845 19.8716 28.8832 19.371 28.036C18.9217 27.3813 18.1772 26.9833 17.3684 27.086C16.7266 27.086 16.0719 27.2401 15.4814 27.5867C14.878 27.9846 14.3261 28.4853 13.9795 29.1399M37.0475 38.036C36.4955 38.588 35.8023 39.0372 35.0963 39.3325C34.1592 39.6791 33.1579 39.8845 32.1566 39.8331C31.4506 39.8845 30.706 39.7304 30.0642 39.4865C29.4566 39.2298 28.9046 38.8789 28.4082 38.4339C27.9632 37.929 27.6123 37.377 27.3556 36.7779C27.1117 36.1361 27.009 35.4301 27.009 34.7369C27.009 31.733 29.3582 29.7818 33.1065 29.7818H37.0988V28.8832C37.0988 28.2927 36.7522 27.7921 36.2516 27.5353C35.4557 27.1887 34.5571 26.9833 33.6585 27.0347C32.6573 27.0347 31.656 27.1887 30.706 27.3813C29.9615 27.5867 29.2127 27.8391 28.4596 28.1387L28.0103 24.7882C28.2542 24.6342 28.6136 24.5443 29.0629 24.3903C29.4608 24.2362 29.9615 24.1335 30.4108 23.9923C30.8601 23.8896 31.4506 23.7869 32.0539 23.6842C32.6573 23.5944 33.2991 23.5944 33.9538 23.5944C35.8023 23.4403 37.7022 24.0437 39.1014 25.2375C40.3466 26.534 40.9499 28.2927 40.8472 30.0385V39.8331H37.9974L37.0475 38.036ZM37.0475 32.439H33.5045C32.7599 32.3877 32.0539 32.5803 31.3992 32.991C31.0013 33.389 30.7574 33.941 30.7574 34.5315C30.7574 35.0835 30.9499 35.5841 31.3607 35.982C31.81 36.3286 32.4005 36.534 33.0039 36.4827C33.4531 36.4827 33.9024 36.4313 34.3517 36.2901C34.7497 36.1874 35.1476 36.0334 35.4942 35.8408C35.8451 35.5841 36.1489 35.3316 36.4056 35.0835C36.7009 34.7882 36.8935 34.4801 37.0988 34.1849L37.0475 32.439ZM53.1322 31.4378L60.475 39.7818H55.4814L48.6778 31.5405V39.7818H44.7368V17.5482H48.6778V31.5405L54.724 23.3505H59.5764L53.1322 31.4378ZM69.1528 36.3286C69.7561 36.3286 70.4108 36.2773 71.0013 36.1233C71.5533 36.0334 72.1053 35.8794 72.6059 35.674C73.0552 35.5328 73.5045 35.3274 73.9024 35.0835C74.095 34.9808 74.3004 34.8267 74.5058 34.6855L75.2503 38.2285C74.4031 38.6778 73.5045 39.0758 72.5546 39.3838C71.4506 39.6791 70.3081 39.8331 69.1528 39.8331C67.9076 39.8331 66.6624 39.6277 65.4557 39.2298C64.5058 38.8832 63.5687 38.3312 62.8113 37.5738C62.0668 36.8806 61.5148 35.982 61.1682 35.0321C60.7189 34.0308 60.5135 32.9268 60.4621 31.7844C60.4621 30.7317 60.6162 29.6791 60.9628 28.6778C61.3222 27.6894 61.81 26.8293 62.516 26.0334C63.1579 25.2888 64.018 24.6855 64.9679 24.2876C67.1117 23.4403 69.5507 23.4403 71.7073 24.2876C72.6059 24.6342 73.3504 25.2375 74.0051 25.9307C74.5956 26.6367 75.0449 27.4326 75.353 28.2799C75.5969 29.1785 75.751 30.1284 75.751 31.0783C75.751 31.3351 75.751 31.6303 75.751 31.9256C75.6996 32.2336 75.6483 32.5289 75.5969 32.7856H64.5571C64.6085 33.3334 64.7582 33.8297 65.0064 34.2747C65.2118 34.724 65.5584 35.1348 65.9564 35.4301C66.3543 35.7767 66.8036 36.0334 67.3556 36.1233C67.9033 36.3286 68.5023 36.4313 69.1528 36.4313V36.3286ZM68.4082 27.1887C67.9076 27.1887 67.4069 27.2272 66.9576 27.3813C66.5597 27.484 66.1617 27.6894 65.8665 27.9333C65.5071 28.1387 65.2632 28.4339 65.0578 28.7805C64.8652 29.1271 64.7112 29.4865 64.6085 29.8845H71.656C71.656 29.5379 71.6046 29.1785 71.4506 28.8319C71.3479 28.5366 71.104 28.2285 70.8601 27.9846C70.552 27.7279 70.2054 27.5353 69.8588 27.3813C69.3581 27.2272 68.8575 27.1374 68.4082 27.1887ZM149.564 25.8794L154.852 19.4865H156.046V23.5302H160.59V27.0347H156.046V33.7356C156.046 34.0822 156.098 34.4801 156.2 34.8781C156.303 35.1262 156.453 35.3787 156.65 35.6354C156.855 35.7767 157.099 35.9307 157.356 35.982C157.599 36.0847 157.856 36.1233 158.151 36.1233C158.601 36.1233 159.05 36.0847 159.448 35.9307C159.846 35.8794 160.193 35.7253 160.552 35.5841V39.1271C160.15 39.3239 159.696 39.4737 159.191 39.5764C157.805 39.8716 156.354 39.8331 155.006 39.4224C154.352 39.2298 153.8 38.8832 153.299 38.4339C152.901 37.9846 152.555 37.4326 152.362 36.8293C152.157 36.1746 152.003 35.4301 152.054 34.724V27.1374H149.461L149.564 25.8794ZM167.394 26.9191C167.985 25.9307 168.742 25.0706 169.692 24.4288C170.488 23.8254 171.489 23.5302 172.542 23.5815C172.841 23.5302 173.141 23.5302 173.44 23.5815L173.979 23.6714C173.979 23.6714 173.89 24.57 173.286 27.3684C172.991 27.3299 172.683 27.2786 172.388 27.3299C171.682 27.2786 171.04 27.4198 170.385 27.6765C169.795 27.9204 169.294 28.3184 168.896 28.819C168.485 29.3197 168.139 29.923 167.946 30.5777C167.741 31.3736 167.638 32.1737 167.638 32.9782V39.8203H163.646V23.5815H166.149L167.394 26.9191ZM193.004 23.5687C194.108 23.5173 195.16 23.7613 196.098 24.2105C196.958 24.6598 197.651 25.2632 198.254 26.0591C198.806 26.8678 199.255 27.7664 199.499 28.7163C199.743 29.7176 199.897 30.7574 199.897 31.7587C199.897 32.8113 199.743 33.8639 199.448 34.8652C199.204 35.8152 198.755 36.6624 198.151 37.407C197.548 38.1643 196.855 38.7548 196.008 39.1528C195.109 39.6149 194.056 39.8075 193.055 39.8075C192.054 39.8075 191.104 39.6534 190.205 39.3068C189.461 38.9602 188.768 38.5109 188.216 37.8562V46.303H184.223V23.5687H186.56L188.113 25.5199C188.716 24.9166 189.461 24.4159 190.308 24.018C191.155 23.7099 192.054 23.5173 192.952 23.5687H193.004ZM191.913 27.1117C191.463 27.0604 191.014 27.163 190.616 27.3171C190.218 27.4583 189.859 27.6637 189.512 27.9076C189.217 28.113 188.96 28.4082 188.716 28.7163C188.511 29.0116 188.318 29.3068 188.216 29.6663V34.2619C188.37 34.5571 188.562 34.8139 188.819 35.0578C189.063 35.3145 189.32 35.5071 189.615 35.7125C189.966 35.9093 190.317 36.0591 190.668 36.1618C191.656 36.4057 192.709 36.3543 193.659 36.0077C194.108 35.7638 194.557 35.4557 194.852 35.0578C195.212 34.6598 195.456 34.1592 195.61 33.6586C195.751 33.0552 195.854 32.4134 195.905 31.7587C195.905 31.1682 195.802 30.5135 195.61 29.8588C195.456 29.3111 195.203 28.8105 194.852 28.3569C194.506 27.9589 194.108 27.6123 193.607 27.4069C193.107 27.163 192.606 27.0604 192.054 27.0604L191.913 27.1117ZM178.087 16.8678C178.639 16.8678 179.178 17.1245 179.538 17.5225C179.936 17.9204 180.18 18.4211 180.128 18.9731C180.128 20.1156 179.23 21.0655 178.087 21.0655C176.932 21.0655 176.033 20.1156 176.033 18.9731C176.033 17.8177 176.932 16.9191 178.087 16.9191V16.8678ZM176.033 23.5687H180.039V39.8075H176.033V23.5687Z" fill="#27447C"/>
</svg>
